<svg width="800" height="800" viewBox="0 0 800 800" fill="none" xmlns="http://www.w3.org/2000/svg">
<path fill-rule="evenodd" clip-rule="evenodd" d="M633.333 166.667V633.333H166.667V166.667H633.333ZM363.085 283.333H317.637L231.351 516.667H272.353L288.644 471.052H391.934L407.874 516.667H451.346L363.085 283.333ZM524.129 283.333H483.292V516.667H524.129V283.333ZM340.016 322.481L380.694 438.888H299.986L340.016 322.481ZM672.222 516.667H750V594.444H672.222V516.667ZM205.556 672.222H283.333V750H205.556V672.222ZM361.111 672.222H438.889V750H361.111V672.222ZM205.556 50H283.333V127.778H205.556V50ZM516.667 672.222H594.444V750H516.667V672.222ZM361.111 50H438.889V127.778H361.111V50ZM516.667 50H594.444V127.778H516.667V50ZM672.222 361.111H750V438.889H672.222V361.111ZM50 516.667H127.778V594.444H50V516.667ZM672.222 205.556H750V283.333H672.222V205.556ZM50 361.111H127.778V438.889H50V361.111ZM50 205.556H127.778V283.333H50V205.556Z" fill="black"/>
</svg>
